<?xml version="1.0" encoding="UTF-8" standalone="no"?>
<!DOCTYPE svg PUBLIC "-//W3C//DTD SVG 1.1//EN" "http://www.w3.org/Graphics/SVG/1.1/DTD/svg11.dtd">
<svg width="100%" height="100%" viewBox="0 0 680 680" version="1.1"
    xmlns="http://www.w3.org/2000/svg" xmlns:xlink="http://www.w3.org/1999/xlink"
    xml:space="preserve" xmlns:serif="http://www.serif.com/"
    style="fill-rule:evenodd;clip-rule:evenodd;">
    <path d="M340,617C207.793,616.999 99.005,579.08 99.005,533C99.005,486.919 207.796,449 340.005,449C472.214,449 581.005,486.919 581.005,533C581.005,579.08 472.217,616.999 340.01,617L340,617ZM131,475C104.668,502.045 94.224,527.247 101.296,546.676C118.933,595.133 241.191,595.791 372.128,548.134C503.065,500.477 596.297,421.387 578.66,372.93C575.493,364.228 568.868,356.838 559,351C516.045,387.089 454.941,420.683 387.811,445.116C289.27,480.982 190.465,492.48 131,475ZM131,335C104.668,362.045 94.224,387.247 101.296,406.676C118.933,455.133 241.191,455.791 372.128,408.134C503.065,360.477 596.297,281.387 578.66,232.93C575.493,224.228 568.868,216.838 559,211C516.045,247.089 454.941,280.683 387.811,305.116C289.27,340.982 190.465,352.48 131,335ZM119,208C101.342,230.08 95.115,250.314 101.002,266.487C118.639,314.944 240.896,315.602 371.833,267.945C390.01,261.329 407.848,253.966 425,246C310.288,259.642 182.5,243.773 119,208ZM340,211C207.793,210.999 99.005,177.595 99.005,137C99.005,96.405 207.796,63 340.005,63C472.214,63 581.005,96.405 581.005,137C581.005,177.595 472.217,210.999 340.01,211L340,211Z" style="fill:none;fill-rule:nonzero;stroke:white;stroke-width:80px;"/>
    <path d="M131,475C104.668,502.045 94.224,527.247 101.296,546.676C118.933,595.133 241.191,595.791 372.128,548.134C503.065,500.477 596.297,421.387 578.66,372.93C575.493,364.228 568.868,356.838 559,351C516.045,387.089 454.941,420.683 387.811,445.116C289.27,480.982 190.465,492.48 131,475ZM131,335C104.668,362.045 94.224,387.247 101.296,406.676C118.933,455.133 241.191,455.791 372.128,408.134C503.065,360.477 596.297,281.387 578.66,232.93C575.493,224.228 568.868,216.838 559,211C516.045,247.089 454.941,280.683 387.811,305.116C289.27,340.982 190.465,352.48 131,335Z" style="fill:rgb(255,63,0);fill-rule:nonzero;"/>
    <path d="M249,619C278.252,623.775 309.631,626.233 341.322,626.233C472.982,626.233 581.322,583.8 581.322,532.233C581.322,517.944 573.003,503.841 557,491C482.185,552.719 358.068,604.3 249,619ZM119,208C101.342,230.08 95.115,250.314 101.002,266.487C118.639,314.944 240.896,315.602 371.833,267.945C390.01,261.329 407.848,253.966 425,246C310.288,259.642 182.5,243.773 119,208ZM340,211C207.793,210.999 99.005,177.595 99.005,137C99.005,96.405 207.796,63 340.005,63C472.214,63 581.005,96.405 581.005,137C581.005,177.595 472.217,210.999 340.01,211L340,211Z" style="fill-rule:nonzero;"/>
</svg>